<svg width="34" height="14" viewBox="0 0 34 14" fill="none" xmlns="http://www.w3.org/2000/svg">
<path fill-rule="evenodd" clip-rule="evenodd" d="M4.47158 2.59752C5.09961 2.6508 5.72765 2.27782 6.12017 1.80494C6.50615 1.31874 6.76129 0.66603 6.69587 0C6.1398 0.0266412 5.45288 0.372977 5.06036 0.859179C4.70055 1.27878 4.39308 1.95813 4.47158 2.59752ZM11.9416 11.176V0.792583H15.7687C17.7444 0.792583 19.1248 2.17793 19.1248 4.20266C19.1248 6.22739 17.7182 7.62605 15.7164 7.62605H13.5248V11.176H11.9416ZM6.6889 2.72409C6.13561 2.69167 5.63076 2.89349 5.22298 3.05651C4.96056 3.16142 4.73834 3.25025 4.56928 3.25025C4.37956 3.25025 4.14817 3.15667 3.88836 3.05159C3.54794 2.91391 3.15874 2.75649 2.7506 2.76405C1.81509 2.77737 0.945 3.31685 0.467433 4.17603C-0.513871 5.89439 0.212294 8.43863 1.16089 9.83729C1.62537 10.53 2.18144 11.2892 2.91415 11.2626C3.2365 11.2502 3.46837 11.15 3.70834 11.0464C3.98462 10.927 4.27162 10.803 4.71975 10.803C5.15234 10.803 5.42679 10.9238 5.69024 11.0397C5.94075 11.1499 6.18131 11.2558 6.53843 11.2493C7.2973 11.236 7.77487 10.5566 8.23936 9.86393C8.74061 9.1205 8.96089 8.39495 8.99431 8.28485L8.99823 8.27212C8.99743 8.2713 8.99123 8.26842 8.98031 8.26332C8.81274 8.18522 7.53202 7.5883 7.51973 5.98764C7.5074 4.6441 8.53558 3.96339 8.69743 3.85623C8.70728 3.84971 8.71392 3.84531 8.71692 3.84302C8.06272 2.85729 7.04216 2.75073 6.6889 2.72409ZM22.0169 11.2558C23.0113 11.2558 23.9337 10.743 24.3524 9.93044H24.3851V11.1759H25.8505V6.00752C25.8505 4.50896 24.6729 3.54321 22.8608 3.54321C21.1795 3.54321 19.9365 4.52228 19.8907 5.86766H21.3169C21.4346 5.22827 22.0169 4.80867 22.815 4.80867C23.7832 4.80867 24.3262 5.26823 24.3262 6.11409V6.68687L22.3505 6.80676C20.5122 6.91998 19.5178 7.68592 19.5178 9.01798C19.5178 10.3634 20.5449 11.2558 22.0169 11.2558ZM22.4412 10.0238C21.5972 10.0238 21.0608 9.61082 21.0608 8.9781C21.0608 8.32539 21.5776 7.94575 22.5655 7.88581L24.3253 7.77258V8.35869C24.3253 9.33109 23.514 10.0238 22.4412 10.0238ZM30.7128 11.5824C30.0782 13.4006 29.3521 14.0001 27.8082 14.0001C27.6904 14.0001 27.2979 13.9868 27.2063 13.9601V12.7146C27.3044 12.728 27.5465 12.7413 27.6708 12.7413C28.3708 12.7413 28.7633 12.4416 29.0053 11.6623L29.1493 11.2028L26.467 3.64331H28.1222L29.9867 9.77745H30.0194L31.8838 3.64331H33.4932L30.7128 11.5824ZM13.5256 2.15125H15.3509C16.7247 2.15125 17.5097 2.8972 17.5097 4.20928C17.5097 5.52136 16.7247 6.27397 15.3443 6.27397H13.5256V2.15125Z" fill="white"/>
</svg>
