<svg width="30" height="24" viewBox="0 0 30 24" fill="none" xmlns="http://www.w3.org/2000/svg">
<path fill-rule="evenodd" clip-rule="evenodd" d="M2.96582 2.32258C2.86608 2.32258 2.77043 2.36336 2.6999 2.43596C2.62937 2.50855 2.58975 2.60701 2.58975 2.70968V18.5806H3.49761C3.9887 16.7934 5.5851 15.4839 7.47864 15.4839C9.37219 15.4839 10.9686 16.7934 11.4597 18.5806H15.3761V2.32258H2.96582ZM17.6325 1.54839V1.16129C17.6325 0.519927 17.1274 0 16.5043 0H2.96582C2.26764 0 1.59806 0.285484 1.10438 0.793646C0.610693 1.30181 0.333344 1.99103 0.333344 2.70968V19.7419C0.333344 20.3833 0.838458 20.9032 1.46155 20.9032H3.49761C3.9887 22.6905 5.5851 24 7.47864 24C9.37219 24 10.9686 22.6905 11.4597 20.9032H18.5403C19.0314 22.6905 20.6278 24 22.5214 24C24.4149 24 26.0113 22.6905 26.5024 20.9032H28.5385C29.1616 20.9032 29.6667 20.3833 29.6667 19.7419V10.4516C29.6667 10.2411 29.6111 10.0346 29.5059 9.85413L24.9931 2.1122C24.7892 1.76241 24.4219 1.54839 24.0257 1.54839H17.6325ZM17.6325 3.87097V9.29032H26.5458L23.3869 3.87097H17.6325ZM27.4103 11.6129H17.6325V18.5806H18.5403C19.0314 16.7934 20.6278 15.4839 22.5214 15.4839C24.4149 15.4839 26.0113 16.7934 26.5024 18.5806H27.4103V11.6129ZM7.47864 17.8065C6.44016 17.8065 5.5983 18.673 5.5983 19.7419C5.5983 20.8109 6.44016 21.6774 7.47864 21.6774C8.51713 21.6774 9.35898 20.8109 9.35898 19.7419C9.35898 18.673 8.51713 17.8065 7.47864 17.8065ZM22.5214 17.8065C21.4829 17.8065 20.641 18.673 20.641 19.7419C20.641 20.8109 21.4829 21.6774 22.5214 21.6774C23.5599 21.6774 24.4017 20.8109 24.4017 19.7419C24.4017 18.673 23.5599 17.8065 22.5214 17.8065Z" fill="#181D25"/>
</svg>
