<svg width="33" height="32" viewBox="0 0 33 32" fill="none" xmlns="http://www.w3.org/2000/svg">
<g clip-path="url(#clip0_7866_55414)">
<path fill-rule="evenodd" clip-rule="evenodd" d="M28.5 6.33333H4.5C3.57953 6.33333 2.83333 7.07953 2.83333 8V24C2.83333 24.9205 3.57953 25.6667 4.5 25.6667H28.5C29.4205 25.6667 30.1667 24.9205 30.1667 24V8C30.1667 7.07953 29.4205 6.33333 28.5 6.33333ZM4.5 4C2.29086 4 0.5 5.79086 0.5 8V24C0.5 26.2091 2.29086 28 4.5 28H28.5C30.7091 28 32.5 26.2091 32.5 24V8C32.5 5.79086 30.7091 4 28.5 4H4.5Z" fill="#181D25"/>
<path fill-rule="evenodd" clip-rule="evenodd" d="M4.66667 22.6667C4.66667 22.0223 5.189 21.5 5.83333 21.5H9.83333C10.4777 21.5 11 22.0223 11 22.6667C11 23.311 10.4777 23.8333 9.83333 23.8333H5.83333C5.189 23.8333 4.66667 23.311 4.66667 22.6667Z" fill="#181D25"/>
<path fill-rule="evenodd" clip-rule="evenodd" d="M4.66667 10.6667C4.66667 10.0223 5.189 9.5 5.83333 9.5H27.1667C27.811 9.5 28.3333 10.0223 28.3333 10.6667C28.3333 11.311 27.811 11.8333 27.1667 11.8333H5.83333C5.189 11.8333 4.66667 11.311 4.66667 10.6667Z" fill="#181D25"/>
</g>
<defs>
<clipPath id="clip0_7866_55414">
<rect width="32" height="32" fill="white" transform="translate(0.5)"/>
</clipPath>
</defs>
</svg>
