<svg width="37" height="16" viewBox="0 0 37 16" fill="none" xmlns="http://www.w3.org/2000/svg">
<path fill-rule="evenodd" clip-rule="evenodd" d="M16.8798 11.8555V7.40752H19.1624C20.0978 7.40752 20.8872 7.09231 21.5308 6.47065L21.6853 6.31304C22.8609 5.02593 22.7837 3.02083 21.5308 1.83003C20.9044 1.19961 20.0463 0.85813 19.1624 0.875642H15.4983V11.8555H16.8798ZM16.8811 6.0592V2.22412H19.1984C19.6962 2.22412 20.1682 2.41675 20.5201 2.76699C21.2667 3.50248 21.2839 4.7283 20.563 5.49006C20.2111 5.86657 19.7133 6.07671 19.1984 6.0592H16.8811ZM28.1299 4.92964C27.5378 4.37801 26.7312 4.09783 25.7101 4.09783C24.3971 4.09783 23.4103 4.58816 22.7582 5.56006L23.9767 6.33933C24.4229 5.67388 25.0322 5.34116 25.8045 5.34116C26.2936 5.34116 26.7655 5.52503 27.1345 5.85776C27.4949 6.17297 27.7009 6.62827 27.7009 7.10985V7.43382C27.1688 7.13612 26.4995 6.97851 25.6757 6.97851C24.7147 6.97851 23.9424 7.20616 23.3674 7.67022C22.7925 8.13429 22.5007 8.7472 22.5007 9.52647C22.4836 10.2357 22.7839 10.9099 23.3159 11.3652C23.8565 11.8555 24.543 12.1007 25.3497 12.1007C26.3022 12.1007 27.0573 11.6717 27.6322 10.8136H27.6923V11.8555H29.0138V7.22367C29.0138 6.25177 28.722 5.48126 28.1299 4.92964ZM24.3807 10.4721C24.0975 10.262 23.9258 9.92053 23.9258 9.55278C23.9258 9.14125 24.1146 8.79977 24.4837 8.52834C24.8613 8.25691 25.3333 8.11682 25.8912 8.11682C26.6636 8.10806 27.2644 8.28318 27.6935 8.63341C27.6935 9.22881 27.4618 9.74541 27.0069 10.1832C26.595 10.6035 26.0371 10.8399 25.4535 10.8399C25.0673 10.8486 24.6896 10.7173 24.3807 10.4721ZM31.9817 15.1566L36.5984 4.34306H35.0967L32.96 9.73668H32.9342L30.7461 4.34306H29.2444L32.2735 11.374L30.5573 15.1566H31.9817Z" fill="white"/>
<path d="M12.1095 6.44437C12.1095 6.01534 12.0752 5.5863 12.0065 5.16602H6.17993V7.59139H9.51798C9.38068 8.37067 8.93447 9.07114 8.2823 9.50893V11.085H10.2731C11.4402 9.9905 12.1095 8.37067 12.1095 6.44437Z" fill="#4285F4"/>
<path d="M6.18001 12.6086C7.84474 12.6086 9.25204 12.0482 10.2732 11.0851L8.28238 9.50903C7.72461 9.89429 7.01237 10.1132 6.18001 10.1132C4.56676 10.1132 3.20236 9.00119 2.71324 7.5127H0.662354V9.14129C1.70925 11.269 3.84594 12.6086 6.18001 12.6086Z" fill="#34A853"/>
<path d="M2.71445 7.51302C2.45698 6.73375 2.45698 5.88443 2.71445 5.0964V3.47656H0.66324C-0.220755 5.25401 -0.220755 7.35542 0.66324 9.13286L2.71445 7.51302Z" fill="#FBBC04"/>
<path d="M6.18001 2.49581C7.06386 2.47829 7.91339 2.81977 8.54839 3.44144L10.3161 1.63773C9.19197 0.569513 7.71602 -0.0171307 6.18001 0.000381064C3.84594 0.000381064 1.70925 1.34879 0.662354 3.47646L2.71324 5.10506C3.20236 3.6078 4.56676 2.49581 6.18001 2.49581Z" fill="#EA4335"/>
</svg>
