<svg width="39" height="24" viewBox="0 0 39 24" fill="none" xmlns="http://www.w3.org/2000/svg">
<path fill-rule="evenodd" clip-rule="evenodd" d="M19.4146 20.5951C17.44 22.3089 14.8786 23.3434 12.0797 23.3434C5.83448 23.3434 0.771729 18.1925 0.771729 11.8385C0.771729 5.48445 5.83448 0.333496 12.0797 0.333496C14.8786 0.333496 17.44 1.36808 19.4146 3.08188C21.3892 1.36808 23.9506 0.333496 26.7495 0.333496C32.9947 0.333496 38.0574 5.48445 38.0574 11.8385C38.0574 18.1925 32.9947 23.3434 26.7495 23.3434C23.9506 23.3434 21.3892 22.3089 19.4146 20.5951Z" fill="#ED0006"/>
<path fill-rule="evenodd" clip-rule="evenodd" d="M19.4147 20.595C21.846 18.4848 23.3877 15.3448 23.3877 11.8385C23.3877 8.33214 21.846 5.19216 19.4147 3.08194C21.3893 1.3681 23.9507 0.333496 26.7496 0.333496C32.9948 0.333496 38.0576 5.48445 38.0576 11.8385C38.0576 18.1925 32.9948 23.3434 26.7496 23.3434C23.9507 23.3434 21.3893 22.3088 19.4147 20.595Z" fill="#F9A000"/>
<path fill-rule="evenodd" clip-rule="evenodd" d="M19.4147 3.08203C21.846 5.19226 23.3877 8.33224 23.3877 11.8386C23.3877 15.3449 21.846 18.4849 19.4147 20.5951C16.9833 18.4849 15.4417 15.3449 15.4417 11.8386C15.4417 8.33224 16.9833 5.19226 19.4147 3.08203Z" fill="#FF5E00"/>
</svg>
