<svg width="42" height="11" viewBox="0 0 42 11" fill="none" xmlns="http://www.w3.org/2000/svg">
<path fill-rule="evenodd" clip-rule="evenodd" d="M4.92552 0.000488281H1.7331C1.51464 0.000488281 1.32884 0.160176 1.29477 0.377003L0.00359307 8.61037C-0.0220702 8.77288 0.103029 8.91932 0.26688 8.91932H1.79097C2.00943 8.91932 2.19523 8.75963 2.2293 8.54237L2.57754 6.32173C2.61114 6.10425 2.79739 5.94478 3.0154 5.94478H4.02601C6.12897 5.94478 7.34257 4.92126 7.65969 2.89312C7.80248 2.00582 7.66574 1.30862 7.25249 0.820217C6.79885 0.284231 5.99395 0.000488281 4.92552 0.000488281ZM5.29383 3.00761C5.11929 4.15975 4.24402 4.15976 3.39771 4.15976H2.91596L3.25393 2.00799C3.274 1.87807 3.38602 1.78225 3.51674 1.78225H3.73753C4.31403 1.78225 4.8579 1.78225 5.13895 2.11271C5.30636 2.30998 5.35777 2.60285 5.29383 3.00761ZM14.4684 2.97068H12.9397C12.8094 2.97068 12.6969 3.06649 12.6768 3.19663L12.6092 3.6266L12.5022 3.47082C12.1713 2.98762 11.4334 2.8262 10.6967 2.8262C9.00723 2.8262 7.56443 4.11304 7.28338 5.91828C7.13735 6.81861 7.34495 7.67962 7.85281 8.28013C8.31877 8.83219 8.98541 9.06228 9.77842 9.06228C11.1396 9.06228 11.8946 8.18193 11.8946 8.18193L11.8263 8.60928C11.8006 8.77267 11.9257 8.9191 12.0885 8.9191H13.4657C13.6847 8.9191 13.8694 8.75941 13.904 8.54215L14.7303 3.27963C14.7564 3.11777 14.6318 2.97068 14.4684 2.97068ZM12.3374 5.96325C12.1899 6.84164 11.4966 7.43129 10.6127 7.43129C10.1688 7.43129 9.81385 7.28811 9.58616 7.01675C9.36021 6.74735 9.27423 6.36366 9.34616 5.93653C9.48398 5.06552 10.1889 4.45675 11.0594 4.45675C11.4934 4.45675 11.8464 4.60166 12.0788 4.87541C12.3117 5.15199 12.4042 5.53785 12.3374 5.96325ZM21.0741 2.97046H22.6105C22.8256 2.97046 22.9511 3.21314 22.8289 3.39065L17.7193 10.8084C17.6366 10.9286 17.5003 11 17.3547 11H15.8203C15.6043 11 15.4781 10.7554 15.6032 10.5775L17.1942 8.3188L15.5021 3.32438C15.4436 3.15079 15.571 2.97046 15.7546 2.97046H17.2642C17.4603 2.97046 17.6334 3.09995 17.69 3.28875L18.588 6.30522L20.7069 3.16621C20.7899 3.04368 20.9277 2.97046 21.0741 2.97046Z" fill="white"/>
<path fill-rule="evenodd" clip-rule="evenodd" d="M37.7291 8.61032L39.0393 0.226388C39.0594 0.0962479 39.1715 0.000434524 39.3017 0H40.7767C40.9396 0 41.0647 0.146869 41.039 0.309381L39.747 8.54232C39.7133 8.75958 39.5275 8.91927 39.3087 8.91927H37.9914C37.8285 8.91927 37.7034 8.77283 37.7291 8.61032ZM27.6952 0.000435114H24.5022C24.2842 0.000435114 24.0984 0.160122 24.0643 0.37695L22.7731 8.61032C22.7474 8.77283 22.8725 8.91927 23.0356 8.91927H24.6739C24.8262 8.91927 24.9565 8.80759 24.9802 8.65551L25.3466 6.32168C25.3803 6.1042 25.5665 5.94473 25.7845 5.94473H26.7946C28.898 5.94473 30.1114 4.92121 30.4287 2.89306C30.5719 2.00576 30.4343 1.30857 30.0213 0.820164C29.5678 0.284178 28.7636 0.000435114 27.6952 0.000435114ZM28.0635 3.00756C27.8894 4.1597 27.0141 4.1597 26.1673 4.1597H25.686L26.0245 2.00794C26.0445 1.87801 26.1556 1.7822 26.2867 1.7822H26.5075C27.0836 1.7822 27.628 1.7822 27.9088 2.11266C28.0764 2.30993 28.1274 2.6028 28.0635 3.00756ZM37.2372 2.97063H35.7095C35.5782 2.97063 35.4667 3.06644 35.4471 3.19658L35.3795 3.62654L35.2721 3.47076C34.9411 2.98757 34.2037 2.82615 33.467 2.82615C31.7775 2.82615 30.3352 4.11299 30.0541 5.91822C29.9085 6.81856 30.1152 7.67957 30.6231 8.28008C31.0899 8.83214 31.7557 9.06222 32.5487 9.06222C33.9099 9.06222 34.6646 8.18188 34.6646 8.18188L34.5966 8.60923C34.5709 8.77261 34.696 8.91905 34.8599 8.91905H36.2364C36.4544 8.91905 36.6401 8.75936 36.6743 8.5421L37.501 3.27957C37.5263 3.11771 37.4012 2.97063 37.2372 2.97063ZM35.1064 5.96319C34.9597 6.84158 34.2657 7.43124 33.3815 7.43124C32.9384 7.43124 32.5828 7.28806 32.3549 7.0167C32.129 6.7473 32.0441 6.36361 32.1152 5.93647C32.2536 5.06547 32.9576 4.4567 33.8282 4.4567C34.2624 4.4567 34.6152 4.60161 34.8478 4.87536C35.0816 5.15194 35.174 5.53779 35.1064 5.96319Z" fill="#179BD7"/>
</svg>
