<svg width="33" height="32" viewBox="0 0 33 32" fill="none" xmlns="http://www.w3.org/2000/svg">
<g clip-path="url(#clip0_7866_55420)">
<path fill-rule="evenodd" clip-rule="evenodd" d="M31.1667 4.16667C31.811 4.16667 32.3333 4.689 32.3333 5.33333V13.3333C32.3333 13.9777 31.811 14.5 31.1667 14.5H23.1667C22.5223 14.5 22 13.9777 22 13.3333C22 12.689 22.5223 12.1667 23.1667 12.1667H30V5.33333C30 4.689 30.5223 4.16667 31.1667 4.16667Z" fill="#181D25"/>
<path fill-rule="evenodd" clip-rule="evenodd" d="M0.666668 18.6667C0.666668 18.0223 1.189 17.5 1.83333 17.5H9.83333C10.4777 17.5 11 18.0223 11 18.6667C11 19.311 10.4777 19.8333 9.83333 19.8333H3V26.6667C3 27.311 2.47767 27.8333 1.83333 27.8333C1.189 27.8333 0.666668 27.311 0.666668 26.6667V18.6667Z" fill="#181D25"/>
<path fill-rule="evenodd" clip-rule="evenodd" d="M19.5028 5.59642C17.7448 5.08794 15.8867 5.03306 14.1018 5.43691C12.317 5.84076 10.6635 6.69018 9.29568 7.9059C7.92787 9.12162 6.89032 10.664 6.27984 12.3892C6.06489 12.9966 5.39823 13.3148 4.79081 13.0998C4.18338 12.8849 3.86522 12.2182 4.08017 11.6108C4.82213 9.51406 6.08316 7.63945 7.74557 6.16188C9.40799 4.68431 11.4176 3.65194 13.5869 3.16111C15.7562 2.67027 18.0145 2.73697 20.1511 3.35497C22.2817 3.97124 24.2219 5.1157 25.7919 6.68201L31.9656 12.4831C32.4351 12.9243 32.4581 13.6627 32.0169 14.1322C31.5757 14.6018 30.8373 14.6248 30.3678 14.1835L24.1811 8.37021C24.1722 8.36186 24.1635 8.35337 24.1548 8.34475C22.8612 7.05042 21.2607 6.10491 19.5028 5.59642ZM0.983122 17.8678C1.42435 17.3982 2.16268 17.3752 2.63224 17.8165L8.81891 23.6298C8.82779 23.6381 8.83655 23.6466 8.84517 23.6552C10.1388 24.9496 11.7393 25.8951 13.4973 26.4036C15.2552 26.9121 17.1133 26.9669 18.8982 26.5631C20.683 26.1592 22.3365 25.3098 23.7043 24.0941C25.0721 22.8784 26.1097 21.336 26.7202 19.6108C26.9351 19.0034 27.6018 18.6852 28.2092 18.9002C28.8166 19.1151 29.1348 19.7818 28.9198 20.3892C28.1779 22.4859 26.9168 24.3605 25.2544 25.8381C23.592 27.3157 21.5824 28.3481 19.4131 28.8389C17.2438 29.3297 14.9855 29.263 12.8489 28.645C10.7183 28.0288 8.77806 26.8843 7.20807 25.318L1.03443 19.5169C0.564869 19.0757 0.541899 18.3373 0.983122 17.8678Z" fill="#181D25"/>
</g>
<defs>
<clipPath id="clip0_7866_55420">
<rect width="32" height="32" fill="white" transform="translate(0.5)"/>
</clipPath>
</defs>
</svg>
