<svg width="12" height="11" viewBox="0 0 12 11" fill="none" xmlns="http://www.w3.org/2000/svg">
<path fill-rule="evenodd" clip-rule="evenodd" d="M5.99806 0.25C6.16458 0.25 6.31666 0.344532 6.39037 0.493852L7.83367 3.41783L11.0613 3.8896C11.2261 3.91368 11.3629 4.02918 11.4142 4.18756C11.4656 4.34594 11.4226 4.51974 11.3033 4.63591L8.96816 6.91035L9.51926 10.1235C9.54742 10.2877 9.47993 10.4536 9.34519 10.5515C9.21045 10.6493 9.03183 10.6622 8.88443 10.5847L5.99806 9.06681L3.11169 10.5847C2.96429 10.6622 2.78567 10.6493 2.65093 10.5515C2.51619 10.4536 2.4487 10.2877 2.47686 10.1235L3.02796 6.91035L0.692802 4.63591C0.573531 4.51974 0.530537 4.34594 0.581889 4.18756C0.633242 4.02918 0.77004 3.91368 0.934785 3.8896L4.16245 3.41783L5.60575 0.493852C5.67946 0.344532 5.83154 0.25 5.99806 0.25ZM5.99806 1.67592L4.84537 4.01115C4.7817 4.14014 4.65868 4.22959 4.51633 4.2504L1.93799 4.62726L3.80332 6.44409C3.90651 6.54461 3.95361 6.68948 3.92926 6.83146L3.48914 9.39761L5.79443 8.18528C5.92191 8.11824 6.07421 8.11824 6.20169 8.18528L8.50698 9.39761L8.06686 6.83146C8.0425 6.68948 8.08961 6.54461 8.1928 6.44409L10.0581 4.62726L7.47978 4.2504C7.33744 4.22959 7.21442 4.14014 7.15075 4.01115L5.99806 1.67592Z" fill="#9CA3AF"/>
</svg>
