<svg width="33" height="32" viewBox="0 0 33 32" fill="none" xmlns="http://www.w3.org/2000/svg">
<path d="M32.3848 25.1152L30.5263 19.7063C31.4221 17.8749 31.8956 15.8381 31.8988 13.7888C31.9043 10.2255 30.5256 6.85631 28.0167 4.30193C25.5074 1.74705 22.1635 0.308857 18.601 0.25242C14.9069 0.194045 11.4347 1.59917 8.82421 4.20955C6.30708 6.72662 4.91095 10.0449 4.86677 13.5909C2.38589 15.4588 0.921571 18.371 0.926384 21.4816C0.928696 22.9372 1.25632 24.3842 1.87714 25.6926L0.596946 29.4181C0.376883 30.0585 0.537633 30.7539 1.01651 31.2328C1.35351 31.5699 1.79782 31.7493 2.25476 31.7493C2.44701 31.7493 2.64151 31.7175 2.8312 31.6524L6.55677 30.3722C7.86521 30.993 9.31215 31.3206 10.7678 31.3229C10.773 31.3229 10.778 31.3229 10.7833 31.3229C13.9402 31.3228 16.8745 29.8207 18.7356 27.279C20.6723 27.228 22.5885 26.7592 24.3208 25.9118L29.7298 27.7704C29.9552 27.8478 30.1863 27.8856 30.4148 27.8856C30.9578 27.8856 31.4858 27.6723 31.8863 27.2717C32.4553 26.7027 32.6463 25.8763 32.3848 25.1152ZM10.7832 29.4182C10.7791 29.4182 10.7748 29.4182 10.7707 29.4182C9.48234 29.4162 8.2029 29.0986 7.07096 28.4997C6.83821 28.3767 6.56496 28.3553 6.31608 28.4408L2.49589 29.7535L3.80858 25.9334C3.89408 25.6845 3.87283 25.4112 3.7497 25.1785C3.15083 24.0465 2.8332 22.7671 2.8312 21.4787C2.82801 19.4063 3.6342 17.442 5.04402 15.9711C5.50452 18.7783 6.84246 21.3652 8.91634 23.4022C10.9749 25.4242 13.5625 26.7115 16.3545 27.1324C14.8803 28.5855 12.893 29.4182 10.7832 29.4182ZM30.5393 25.9248C30.4851 25.979 30.4209 25.9938 30.3486 25.9689L24.5581 23.9792C24.4576 23.9446 24.3529 23.9275 24.2487 23.9275C24.095 23.9275 23.9419 23.9647 23.8033 24.038C22.15 24.9127 20.2817 25.3765 18.4004 25.3794C18.3942 25.3794 18.3885 25.3794 18.3824 25.3794C12.0784 25.3794 6.87133 20.2585 6.77146 13.9561C6.72115 10.782 7.92852 7.79893 10.1711 5.55637C12.4137 3.3138 15.3972 2.10686 18.5709 2.15686C24.8794 2.25692 30.0038 7.47362 29.994 13.7858C29.9911 15.6672 29.5273 17.5355 28.6527 19.1887C28.5296 19.4214 28.5083 19.6946 28.5938 19.9436L30.5835 25.7341C30.6083 25.8066 30.5934 25.8708 30.5393 25.9248Z" fill="#181D25"/>
<path d="M24.0558 8.7195H12.7083C12.1823 8.7195 11.7559 9.14594 11.7559 9.67188C11.7559 10.1979 12.1823 10.6243 12.7083 10.6243H24.0558C24.5818 10.6243 25.0082 10.1978 25.0082 9.67188C25.0082 9.14594 24.5818 8.7195 24.0558 8.7195Z" fill="#181D25"/>
<path d="M24.0558 12.6364H12.7083C12.1823 12.6364 11.7559 13.0629 11.7559 13.5888C11.7559 14.1148 12.1823 14.5412 12.7083 14.5412H24.0558C24.5818 14.5412 25.0082 14.1148 25.0082 13.5888C25.0082 13.0629 24.5818 12.6364 24.0558 12.6364Z" fill="#181D25"/>
<path d="M19.6878 16.5533H12.7082C12.1822 16.5533 11.7558 16.9797 11.7558 17.5056C11.7558 18.0316 12.1823 18.458 12.7082 18.458H19.6877C20.2137 18.458 20.6401 18.0316 20.6401 17.5056C20.6401 16.9797 20.2138 16.5533 19.6878 16.5533Z" fill="#181D25"/>
</svg>
