<svg width="34" height="11" viewBox="0 0 34 11" fill="none" xmlns="http://www.w3.org/2000/svg">
<path fill-rule="evenodd" clip-rule="evenodd" d="M8.43911 10.749H5.5182L3.32788 2.34478C3.22392 1.95819 3.00318 1.61642 2.67847 1.45534C1.86814 1.05053 0.975208 0.72837 0.00109863 0.565889V0.242326H4.70644C5.35585 0.242326 5.84291 0.72837 5.92408 1.29285L7.06054 7.3551L9.98002 0.242326H12.8197L8.43911 10.749ZM14.4433 10.749H11.6847L13.9562 0.242326H16.7147L14.4433 10.749ZM20.2835 3.15298C20.3647 2.5871 20.8518 2.26354 21.42 2.26354C22.3129 2.1823 23.2856 2.34478 24.0974 2.74818L24.5844 0.486044C23.7727 0.162482 22.8797 0 22.0694 0C19.392 0 17.4438 1.45533 17.4438 3.47515C17.4438 5.01172 18.8238 5.81852 19.7979 6.30457C20.8518 6.78921 21.2576 7.11277 21.1765 7.59742C21.1765 8.32438 20.3647 8.64795 19.5544 8.64795C18.5803 8.64795 17.6062 8.40562 16.7147 8.00082L16.2276 10.2644C17.2017 10.6678 18.2556 10.8302 19.2297 10.8302C22.2318 10.9101 24.0974 9.45615 24.0974 7.27386C24.0974 4.52567 20.2835 4.36459 20.2835 3.15298ZM33.7515 10.749L31.5612 0.242326H29.2085C28.7215 0.242326 28.2344 0.565889 28.0721 1.05053L24.0161 10.749H26.8559L27.4227 9.21383H30.9118L31.2365 10.749H33.7515ZM29.6143 3.0718L30.4246 7.03159H28.1531L29.6143 3.0718Z" fill="white"/>
</svg>
